<?xml version="1.0" standalone="no"?>
<!DOCTYPE svg PUBLIC "-//W3C//DTD SVG 20010904//EN"
 "http://www.w3.org/TR/2001/REC-SVG-20010904/DTD/svg10.dtd">
<svg version="1.0" xmlns="http://www.w3.org/2000/svg"
 width="195.000000pt" height="258.000000pt" viewBox="0 0 195.000000 258.000000"
 preserveAspectRatio="xMidYMid meet">
<metadata>
Created by potrace 1.10, written by Peter Selinger 2001-2011
</metadata>
<g transform="translate(0.000000,258.000000) scale(0.100000,-0.100000)"
fill="#000000" stroke="none">
<path d="M895 2247 c-3 -12 -18 -31 -33 -41 -27 -18 -28 -21 -30 -125 -1 -58
-5 -137 -8 -176 -3 -40 -1 -82 5 -97 7 -19 7 -28 0 -28 -15 0 -7 -132 9 -138
7 -2 12 6 12 22 0 32 0 32 47 1 27 -19 48 -25 75 -23 21 2 37 8 36 13 -2 6
-16 9 -33 8 -25 -2 -27 -1 -10 6 17 8 17 10 3 10 -10 1 -22 10 -27 20 -9 15
-6 22 14 35 13 9 27 16 30 16 3 0 15 9 27 20 12 11 25 20 28 20 10 0 10 -101
0 -120 -8 -14 -5 -16 15 -12 25 4 25 5 27 141 1 75 1 183 -1 240 l-4 105 -39
50 c-25 32 -53 55 -76 63 -51 18 -61 16 -67 -10z m38 -52 c-4 -11 2 -15 21
-15 19 0 29 -7 35 -23 5 -13 22 -37 38 -53 40 -40 44 -55 37 -145 -7 -79 -7
-79 -26 -59 -19 20 -44 28 -34 11 4 -5 0 -12 -6 -14 -7 -3 -4 -6 7 -6 22 -1
47 -44 38 -66 -5 -16 -41 -30 -50 -21 -4 3 -11 1 -18 -4 -14 -12 -55 15 -55
36 0 16 -16 19 -25 3 -11 -17 53 -71 75 -64 34 11 22 -5 -15 -21 -20 -8 -41
-12 -46 -8 -6 3 -1 -12 10 -34 11 -22 18 -42 14 -45 -11 -11 -56 28 -69 60
-18 41 -18 62 -1 39 13 -18 14 -18 20 -2 4 10 2 25 -4 34 -9 15 -10 14 -4 -3
4 -13 3 -17 -4 -10 -5 6 -13 29 -17 53 -6 38 -5 42 11 36 15 -6 16 -3 10 25
-4 18 -13 44 -20 58 -16 30 -10 54 11 46 8 -3 14 0 14 6 0 6 -5 11 -12 11 -6
0 -8 3 -5 6 4 4 13 1 21 -5 9 -8 16 -8 20 -2 4 6 13 8 21 5 19 -8 12 -94 -11
-129 -9 -14 -14 -28 -10 -32 3 -3 6 -1 6 5 0 7 7 12 15 12 9 0 18 7 21 15 4 8
14 15 24 15 10 0 21 7 24 16 4 11 1 14 -13 9 -16 -5 -19 0 -19 34 0 22 -6 50
-12 62 -10 18 -18 21 -56 16 -24 -2 -44 -3 -44 -2 0 1 7 19 15 38 8 20 15 48
15 62 0 14 5 25 10 25 6 0 10 6 10 13 0 17 21 38 31 31 5 -2 6 -11 2 -19z m87
-38 c0 -5 4 -6 9 -3 5 3 11 -5 13 -18 7 -35 -15 -23 -40 23 -12 21 -22 43 -22
47 0 11 39 -38 40 -49z"/>
<path d="M980 2041 c0 -15 6 -19 30 -17 17 1 30 -2 30 -8 0 -6 5 -5 12 2 17
17 -8 42 -43 42 -22 0 -29 -5 -29 -19z"/>
<path d="M944 1852 c0 -14 6 -17 28 -14 34 5 36 17 6 26 -33 8 -34 8 -34 -12z"/>
<path d="M776 2103 c-23 -71 -34 -147 -29 -201 6 -77 6 -128 0 -576 -6 -363
-4 -427 7 -410 10 14 14 69 15 219 1 110 3 225 6 255 2 30 7 183 10 340 3 157
8 315 12 353 3 37 3 67 0 67 -3 0 -12 -21 -21 -47z"/>
<path d="M705 1807 c-10 -28 -20 -58 -23 -65 -3 -7 1 -10 11 -7 12 5 13 0 4
-37 -31 -135 -62 -212 -79 -202 -10 7 0 -44 14 -66 6 -10 7 -4 3 17 -4 21 -2
34 8 40 7 4 21 26 30 48 l17 40 -5 -45 c-3 -25 -7 -57 -9 -73 -1 -15 -5 -30
-8 -32 -3 -3 3 -22 13 -42 14 -28 18 -58 18 -145 0 -60 2 -112 5 -116 3 -3 5
75 4 174 0 98 -4 159 -7 134 -3 -25 -9 -40 -14 -33 -4 6 0 46 8 90 8 43 15
103 15 133 0 30 5 95 11 143 6 49 9 90 7 93 -2 2 -13 -20 -23 -49z"/>
<path d="M1180 1741 c0 -33 3 -40 20 -38 18 1 18 3 3 19 -8 10 -13 26 -10 38
3 11 1 20 -4 20 -5 0 -9 -18 -9 -39z"/>
<path d="M1220 1748 c0 -9 7 -21 16 -29 13 -11 15 -27 9 -103 -4 -50 -13 -120
-21 -156 -8 -36 -21 -109 -29 -162 -8 -54 -21 -114 -30 -134 -17 -42 -20 -74
-5 -74 6 0 10 1 10 3 0 1 9 28 20 59 21 61 70 419 70 515 0 47 -4 64 -20 78
-17 15 -20 16 -20 3z"/>
<path d="M604 1694 c-21 -15 -41 -28 -43 -30 -1 -1 12 -2 30 -2 24 0 42 9 61
29 23 25 24 29 9 29 -10 0 -36 -12 -57 -26z"/>
<path d="M1050 1640 c-14 -9 -7 -14 13 -11 5 1 6 -3 2 -9 -3 -6 -11 -8 -16 -5
-5 4 -9 -6 -9 -22 0 -15 -2 -46 -5 -68 -4 -37 -4 -36 9 10 l14 50 2 -60 c1
-33 4 -71 5 -85 1 -14 -3 -47 -10 -75 -13 -49 -12 -65 5 -65 19 0 32 102 26
217 -3 65 -5 121 -6 126 0 10 -12 9 -30 -3z"/>
<path d="M492 1627 c-16 -19 -10 -31 36 -81 18 -20 37 -48 43 -62 5 -15 12
-24 15 -21 6 6 -40 104 -61 127 -7 8 -15 24 -16 34 -4 17 -5 18 -17 3z"/>
<path d="M1410 1566 c0 -8 -16 -41 -34 -72 -19 -32 -33 -61 -30 -66 8 -12 24
0 24 18 0 8 3 14 8 14 4 0 13 12 19 28 16 34 28 92 19 92 -3 0 -6 -7 -6 -14z"/>
<path d="M470 1536 c0 -14 -4 -28 -10 -31 -16 -10 -12 -35 5 -29 8 4 15 13 15
22 0 15 1 15 16 1 8 -9 17 -25 19 -35 2 -10 4 -20 5 -21 2 -2 3 -6 4 -10 1 -5
12 -24 24 -43 24 -39 23 -46 -7 -30 -27 14 -27 3 0 -19 23 -18 38 -78 39 -153
0 -31 11 -72 34 -121 34 -76 60 -192 72 -329 3 -43 11 -78 16 -78 6 0 7 7 4
16 -3 9 -7 100 -8 202 -1 114 -4 162 -7 122 -10 -110 -25 -49 -37 145 -3 60
-7 112 -9 115 -2 3 -6 25 -10 49 -7 48 -23 96 -30 89 -3 -2 0 -20 6 -39 13
-46 39 -233 38 -289 0 -40 -1 -43 -13 -28 -13 18 -22 69 -49 275 -14 107 -16
114 -61 177 -26 36 -49 66 -52 66 -2 0 -4 -11 -4 -24z"/>
<path d="M1188 1513 c7 -65 12 -67 12 -5 0 29 -4 52 -9 52 -5 0 -6 -21 -3 -47z"/>
<path d="M826 1228 c2 -172 5 -322 8 -333 2 -11 5 -28 5 -37 1 -10 6 -18 12
-18 6 0 8 7 5 16 -11 29 3 33 59 17 48 -14 56 -14 69 0 8 8 33 15 55 15 61 1
89 19 165 109 39 45 72 80 74 78 2 -1 -3 -19 -12 -38 -8 -19 -12 -38 -9 -41 3
-3 -2 -17 -11 -31 -9 -14 -13 -25 -8 -25 10 0 32 45 32 66 0 16 59 172 71 189
14 19 49 120 49 141 0 11 -7 29 -15 40 -13 18 -14 15 -15 -29 0 -58 -44 -192
-72 -221 -11 -12 -45 -51 -75 -88 -29 -36 -68 -77 -86 -90 -36 -27 -133 -48
-220 -48 l-55 0 0 70 c0 38 -3 89 -7 112 l-7 43 41 -47 c42 -48 116 -96 154
-100 26 -3 147 34 147 45 0 15 -99 -4 -126 -25 -16 -12 -115 45 -145 84 -14
18 -35 53 -47 78 -26 54 -40 140 -24 140 7 0 9 27 6 80 -2 44 0 80 5 80 13 0
29 -22 36 -50 9 -36 72 -120 90 -120 12 0 13 3 6 13 -47 56 -61 77 -61 87 0
12 20 -9 61 -62 11 -16 25 -28 31 -28 10 0 -74 104 -122 150 -15 14 -33 40
-41 58 -7 17 -17 32 -20 32 -3 0 -5 -141 -3 -312z"/>
<path d="M450 1441 c12 -23 58 -61 74 -61 6 0 -4 13 -22 28 -18 15 -32 33 -32
40 0 6 -7 12 -15 12 -12 0 -13 -4 -5 -19z"/>
<path d="M958 1424 c6 -10 20 -30 31 -44 19 -23 21 -23 20 -5 0 11 -14 31 -31
44 -25 21 -29 21 -20 5z"/>
<path d="M1281 1420 c-4 -55 -8 -98 -15 -160 -4 -40 -3 -57 3 -45 17 40 28
131 21 180 -4 28 -8 39 -9 25z"/>
<path d="M1517 1408 c-6 -18 4 -118 12 -118 7 0 4 120 -3 127 -2 2 -6 -2 -9
-9z"/>
<path d="M418 1355 c-3 -13 -2 -22 2 -20 4 2 21 0 39 -5 39 -11 40 0 1 28 -36
27 -37 27 -42 -3z"/>
<path d="M370 1292 c0 -17 6 -22 24 -22 13 0 37 -7 53 -17 32 -18 83 -83 83
-105 0 -10 -3 -9 -11 2 -10 13 -10 13 -6 0 15 -51 32 -90 39 -90 4 0 8 -53 8
-117 1 -137 19 -138 22 -1 1 67 -3 99 -26 166 -35 104 -95 181 -141 182 -12 0
-26 5 -33 12 -9 9 -12 7 -12 -10z"/>
<path d="M883 1290 c-1 -11 4 -20 11 -20 7 0 21 -9 31 -20 10 -11 20 -18 23
-15 3 3 11 0 19 -7 10 -8 17 -8 24 -1 8 8 5 13 -10 18 -12 3 -21 10 -21 15 0
4 -8 10 -17 13 -10 4 -27 13 -38 21 -19 14 -21 14 -22 -4z"/>
<path d="M470 1288 c0 -6 3 -9 6 -5 3 3 18 -5 32 -18 14 -13 29 -22 32 -19 6
7 -47 54 -61 54 -5 0 -9 -5 -9 -12z"/>
<path d="M1122 1284 c-14 -9 -36 -14 -52 -12 -24 4 -27 2 -19 -9 6 -7 15 -10
20 -7 5 3 9 0 9 -6 0 -8 -10 -10 -27 -6 -19 4 -23 4 -14 -3 21 -14 4 -30 -64
-61 -66 -30 -89 -50 -57 -50 23 0 90 27 107 43 7 7 34 30 60 52 26 22 51 48
56 58 12 21 9 21 -19 1z"/>
<path d="M1555 1190 c-58 -51 -87 -81 -82 -86 3 -3 24 12 47 35 23 23 46 41
51 41 5 0 9 5 9 10 0 12 -11 12 -25 0z"/>
<path d="M370 1179 c-12 -7 -11 -9 6 -9 15 0 26 -12 38 -38 24 -53 17 -85 -30
-135 -12 -13 -7 -47 7 -47 5 0 9 -7 9 -15 0 -8 -3 -15 -6 -15 -9 0 -43 44 -44
56 0 7 -6 14 -14 17 -11 5 -11 1 1 -24 8 -16 13 -34 11 -40 -6 -18 -41 41 -49
81 l-7 35 -1 -39 c-1 -28 6 -47 25 -69 22 -26 25 -37 20 -70 -8 -51 10 -109
32 -105 18 3 27 32 61 193 28 131 27 176 -1 202 -33 29 -42 33 -58 22z"/>
<path d="M1380 1165 c8 -22 7 -25 -13 -26 -14 -1 -16 -3 -6 -6 8 -2 20 -16 26
-31 10 -26 11 -26 12 15 1 45 -6 73 -20 73 -5 0 -4 -11 1 -25z"/>
<path d="M264 1161 c-3 -3 -14 -6 -24 -6 -11 0 -20 -4 -19 -10 0 -5 11 -9 25
-8 13 1 24 0 24 -3 0 -6 -42 -67 -51 -74 -12 -9 -21 -70 -11 -70 6 0 14 15 17
33 10 42 31 72 40 57 4 -7 2 -17 -4 -23 -6 -6 -11 -18 -11 -26 0 -11 4 -10 20
4 18 16 19 21 6 40 -17 27 -4 47 44 68 19 9 28 16 20 17 -45 5 -72 5 -76 1z"/>
<path d="M1594 1140 c-5 -5 -27 -16 -49 -23 -21 -8 -41 -19 -43 -26 -3 -10 0
-10 17 -1 12 6 36 12 52 12 20 1 26 4 17 9 -9 6 -9 9 -1 9 6 0 15 -4 18 -10
11 -18 26 -10 23 12 -3 24 -19 33 -34 18z"/>
<path d="M387 1124 c6 -17 5 -17 -10 -6 -14 12 -19 11 -33 -2 -22 -23 -12 -30
31 -22 38 7 43 17 20 36 -13 11 -14 10 -8 -6z"/>
<path d="M309 1098 c6 -16 17 -23 37 -25 23 -1 24 0 5 4 -13 2 -26 13 -28 24
-3 10 -9 19 -14 19 -5 0 -5 -10 0 -22z"/>
<path d="M947 1083 c-17 -16 -3 -23 43 -23 28 0 50 4 50 9 0 16 -79 29 -93 14z"/>
<path d="M1402 971 c-25 -49 -35 -78 -27 -74 9 3 15 -1 15 -8 0 -8 16 4 35 25
19 22 35 35 35 30 0 -5 5 -2 10 6 5 8 14 16 20 16 5 1 15 2 20 3 6 0 10 8 10
16 0 17 -31 9 -43 -12 -5 -7 -12 -11 -17 -8 -5 3 -22 -12 -39 -32 -35 -42 -37
-41 -16 11 9 20 26 41 38 46 12 5 40 20 62 34 41 26 29 35 -21 16 -19 -8 -29
-8 -34 0 -4 6 -25 -25 -48 -69z"/>
<path d="M240 995 c0 -21 17 -45 32 -45 14 0 9 17 -12 41 -19 23 -19 23 -20 4z"/>
<path d="M1306 980 c-10 -32 -121 -141 -172 -170 -22 -12 -31 -19 -21 -16 10
3 28 6 38 6 41 0 178 159 166 193 -2 7 -7 1 -11 -13z"/>
<path d="M1524 946 c-17 -8 -34 -22 -38 -32 -6 -16 -5 -17 11 -2 10 8 24 13
31 11 6 -3 12 0 12 6 0 6 8 11 18 11 9 0 24 5 32 10 24 15 -29 12 -66 -4z"/>
<path d="M1596 931 c-3 -4 7 -24 23 -42 16 -19 38 -45 50 -59 l21 -25 -20 42
c-25 53 -25 52 4 50 42 -3 33 18 -9 23 -22 3 -45 9 -52 13 -6 4 -14 3 -17 -2z"/>
<path d="M1512 887 c4 -28 48 -44 80 -30 22 11 22 11 3 19 -11 4 -23 12 -26
17 -4 5 -19 11 -33 12 -23 3 -27 0 -24 -18z"/>
<path d="M1436 855 c-5 -18 -12 -25 -21 -21 -8 3 -15 4 -15 3 0 -2 29 -61 65
-133 36 -71 63 -115 60 -99 -4 17 -14 41 -23 55 -9 14 -17 36 -17 50 0 14 -5
24 -11 23 -7 -1 -9 8 -6 22 2 14 0 25 -6 25 -5 0 -10 21 -10 46 -1 55 -7 65
-16 29z"/>
<path d="M1340 845 c-7 -16 -18 -42 -26 -57 -19 -36 -17 -44 5 -24 18 17 19
16 26 -23 4 -23 9 -51 11 -64 2 -12 9 -56 14 -97 6 -41 13 -77 16 -80 8 -7 -6
194 -21 292 -12 80 -12 82 -25 53z"/>
<path d="M866 835 c-3 -8 -2 -15 3 -15 4 0 14 -11 21 -25 8 -15 22 -25 35 -25
11 0 47 -7 78 -15 53 -14 197 -32 152 -19 -11 3 -33 12 -50 19 -46 19 -151 45
-186 45 -21 0 -30 4 -26 13 2 6 -1 18 -8 24 -10 9 -14 9 -19 -2z"/>
<path d="M1627 800 c15 -26 19 -28 27 -13 6 12 4 20 -10 30 -29 21 -36 15 -17
-17z"/>
<path d="M1480 816 c0 -2 8 -22 19 -45 15 -36 20 -39 31 -26 7 8 8 15 2 15 -5
0 -13 11 -16 24 -3 13 -13 26 -21 30 -8 3 -15 4 -15 2z"/>
<path d="M613 720 c0 -47 2 -66 4 -42 2 23 2 61 0 85 -2 23 -4 4 -4 -43z"/>
<path d="M1594 765 c0 -16 6 -23 13 -20 8 2 15 -7 19 -23 12 -54 16 -62 30
-62 16 0 19 16 4 25 -5 3 -14 24 -20 45 -13 48 -49 75 -46 35z"/>
<path d="M1660 784 c0 -16 23 -44 36 -44 11 0 12 4 5 19 -10 17 -41 37 -41 25z"/>
<path d="M1559 768 c0 -2 -2 -11 -4 -21 -7 -35 -14 -47 -32 -47 -16 0 -16 -1
1 -13 19 -14 35 -72 36 -129 0 -21 5 -38 10 -38 6 0 10 15 10 33 1 28 2 29 11
14 6 -11 9 -32 5 -48 -4 -23 -2 -27 10 -22 14 5 15 18 10 87 -4 45 -10 96 -13
115 l-6 34 -18 -34 c-14 -28 -19 -31 -24 -17 -4 10 0 31 8 48 9 17 11 32 6 36
-5 3 -9 4 -10 2z"/>
</g>
</svg>
